<svg xmlns="http://www.w3.org/2000/svg" xmlns:xlink="http://www.w3.org/1999/xlink" width="853" height="185" viewBox="0 0 853 185">
  <defs>
    <clipPath id="clip-Artboard_1">
      <rect width="853" height="185"/>
    </clipPath>
  </defs>
  <g id="Artboard_1" data-name="Artboard – 1" clip-path="url(#clip-Artboard_1)">
    <circle id="Ellipse_1" data-name="Ellipse 1" cx="20.5" cy="20.5" r="20.5" transform="translate(187 9)" fill="#5b5b5b"/>
    <circle id="Ellipse_2" data-name="Ellipse 2" cx="12.5" cy="12.5" r="12.5" transform="translate(246 28)" fill="#212121"/>
    <circle id="Ellipse_3" data-name="Ellipse 3" cx="12.5" cy="12.5" r="12.5" transform="translate(221 54)" fill="#212121"/>
    <circle id="Ellipse_4" data-name="Ellipse 4" cx="12.5" cy="12.5" r="12.5" transform="translate(195 81)" fill="#212121"/>
    <circle id="Ellipse_5" data-name="Ellipse 5" cx="12.5" cy="12.5" r="12.5" transform="translate(168 106)" fill="#212121"/>
    <circle id="Ellipse_6" data-name="Ellipse 6" cx="12.5" cy="12.5" r="12.5" transform="translate(143 131)" fill="#212121"/>
    <circle id="Ellipse_7" data-name="Ellipse 7" cx="12.5" cy="12.5" r="12.5" transform="translate(118 159)" fill="#212121"/>
    <circle id="Ellipse_8" data-name="Ellipse 8" cx="12.5" cy="12.5" r="12.5" transform="translate(273 3)" fill="#212121"/>
    <circle id="Ellipse_9" data-name="Ellipse 9" cx="12.5" cy="12.5" r="12.5" transform="translate(117 3)" fill="#212121"/>
    <circle id="Ellipse_10" data-name="Ellipse 10" cx="12.5" cy="12.5" r="12.5" transform="translate(142 28)" fill="#212121"/>
    <circle id="Ellipse_11" data-name="Ellipse 11" cx="12.5" cy="12.5" r="12.5" transform="translate(168 56)" fill="#212121"/>
    <circle id="Ellipse_12" data-name="Ellipse 12" cx="12.5" cy="12.5" r="12.5" transform="translate(221 106)" fill="#212121"/>
    <circle id="Ellipse_13" data-name="Ellipse 13" cx="12.5" cy="12.5" r="12.5" transform="translate(246 134)" fill="#212121"/>
    <circle id="Ellipse_14" data-name="Ellipse 14" cx="12.5" cy="12.5" r="12.5" transform="translate(273 160)" fill="#212121"/>
    <circle id="Ellipse_15" data-name="Ellipse 15" cx="13" cy="13" r="13" transform="translate(87 23)" fill="#5b5b5b"/>
    <circle id="Ellipse_16" data-name="Ellipse 16" cx="13" cy="13" r="13" transform="translate(116 53)" fill="#5b5b5b"/>
    <circle id="Ellipse_17" data-name="Ellipse 17" cx="13" cy="13" r="13" transform="translate(141 80)" fill="#5b5b5b"/>
    <circle id="Ellipse_18" data-name="Ellipse 18" cx="13" cy="13" r="13" transform="translate(168 106)" fill="#5b5b5b"/>
    <circle id="Ellipse_19" data-name="Ellipse 19" cx="13" cy="13" r="13" transform="translate(116 110)" fill="#5b5b5b"/>
    <circle id="Ellipse_20" data-name="Ellipse 20" cx="13" cy="13" r="13" transform="translate(87 139)" fill="#5b5b5b"/>
    <circle id="Ellipse_21" data-name="Ellipse 21" cx="13" cy="13" r="13" transform="translate(87 81)" fill="#bdbdbd"/>
    <circle id="Ellipse_22" data-name="Ellipse 22" cx="13" cy="13" r="13" transform="translate(50 80)" fill="#bdbdbd"/>
    <circle id="Ellipse_23" data-name="Ellipse 23" cx="13" cy="13" r="13" transform="translate(13 80)" fill="#bdbdbd"/>
    <circle id="Ellipse_24" data-name="Ellipse 24" cx="13" cy="13" r="13" transform="translate(302 21)" fill="#5b5b5b"/>
    <circle id="Ellipse_25" data-name="Ellipse 25" cx="13" cy="13" r="13" transform="translate(272 50)" fill="#5b5b5b"/>
    <circle id="Ellipse_26" data-name="Ellipse 26" cx="13" cy="13" r="13" transform="translate(248 80)" fill="#5b5b5b"/>
    <circle id="Ellipse_27" data-name="Ellipse 27" cx="13" cy="13" r="13" transform="translate(273 106)" fill="#5b5b5b"/>
    <circle id="Ellipse_28" data-name="Ellipse 28" cx="13" cy="13" r="13" transform="translate(303 136)" fill="#5b5b5b"/>
    <circle id="Ellipse_29" data-name="Ellipse 29" cx="13" cy="13" r="13" transform="translate(303 81)" fill="#bdbdbd"/>
    <circle id="Ellipse_30" data-name="Ellipse 30" cx="13" cy="13" r="13" transform="translate(340 81)" fill="#bdbdbd"/>
    <circle id="Ellipse_31" data-name="Ellipse 31" cx="13" cy="13" r="13" transform="translate(377 81)" fill="#bdbdbd"/>
    <text id="W" transform="translate(437 -9)" fill="#707070" font-size="180" font-family="TechnicLite"><tspan x="0" y="162">W</tspan></text>
    <text id="t" transform="translate(615 -47)" fill="#707070" font-size="220" font-family="TechnicLite"><tspan x="0" y="198">t</tspan></text>
    <text id="b" transform="translate(757 -47)" fill="#707070" font-size="220" font-family="TechnicLite"><tspan x="0" y="198">b</tspan></text>
  </g>
</svg>