<svg xmlns="http://www.w3.org/2000/svg" xmlns:xlink="http://www.w3.org/1999/xlink" width="405" height="205" viewBox="0 0 405 205">
  <defs>
    <clipPath id="clip-Artboard_1">
      <rect width="405" height="205"/>
    </clipPath>
  </defs>
  <g id="Artboard_1" data-name="Artboard – 1" clip-path="url(#clip-Artboard_1)">
    <circle id="Ellipse_1" data-name="Ellipse 1" cx="20.5" cy="20.5" r="20.5" transform="translate(183 15)" fill="#5b5b5b"/>
    <circle id="Ellipse_2" data-name="Ellipse 2" cx="12.5" cy="12.5" r="12.5" transform="translate(242 34)" fill="#212121"/>
    <circle id="Ellipse_3" data-name="Ellipse 3" cx="12.5" cy="12.5" r="12.5" transform="translate(217 60)" fill="#212121"/>
    <circle id="Ellipse_4" data-name="Ellipse 4" cx="12.5" cy="12.5" r="12.5" transform="translate(191 87)" fill="#212121"/>
    <circle id="Ellipse_5" data-name="Ellipse 5" cx="12.5" cy="12.5" r="12.5" transform="translate(164 112)" fill="#212121"/>
    <circle id="Ellipse_6" data-name="Ellipse 6" cx="12.5" cy="12.5" r="12.5" transform="translate(139 137)" fill="#212121"/>
    <circle id="Ellipse_7" data-name="Ellipse 7" cx="12.5" cy="12.5" r="12.5" transform="translate(114 165)" fill="#212121"/>
    <circle id="Ellipse_8" data-name="Ellipse 8" cx="12.5" cy="12.5" r="12.5" transform="translate(269 9)" fill="#212121"/>
    <circle id="Ellipse_9" data-name="Ellipse 9" cx="12.5" cy="12.5" r="12.5" transform="translate(113 9)" fill="#212121"/>
    <circle id="Ellipse_10" data-name="Ellipse 10" cx="12.5" cy="12.5" r="12.5" transform="translate(138 34)" fill="#212121"/>
    <circle id="Ellipse_11" data-name="Ellipse 11" cx="12.5" cy="12.5" r="12.5" transform="translate(164 62)" fill="#212121"/>
    <circle id="Ellipse_12" data-name="Ellipse 12" cx="12.5" cy="12.5" r="12.5" transform="translate(217 112)" fill="#212121"/>
    <circle id="Ellipse_13" data-name="Ellipse 13" cx="12.5" cy="12.5" r="12.5" transform="translate(242 140)" fill="#212121"/>
    <circle id="Ellipse_14" data-name="Ellipse 14" cx="12.5" cy="12.5" r="12.5" transform="translate(269 166)" fill="#212121"/>
    <circle id="Ellipse_15" data-name="Ellipse 15" cx="13" cy="13" r="13" transform="translate(83 29)" fill="#5b5b5b"/>
    <circle id="Ellipse_16" data-name="Ellipse 16" cx="13" cy="13" r="13" transform="translate(112 59)" fill="#5b5b5b"/>
    <circle id="Ellipse_17" data-name="Ellipse 17" cx="13" cy="13" r="13" transform="translate(137 86)" fill="#5b5b5b"/>
    <circle id="Ellipse_18" data-name="Ellipse 18" cx="13" cy="13" r="13" transform="translate(164 112)" fill="#5b5b5b"/>
    <circle id="Ellipse_19" data-name="Ellipse 19" cx="13" cy="13" r="13" transform="translate(112 116)" fill="#5b5b5b"/>
    <circle id="Ellipse_20" data-name="Ellipse 20" cx="13" cy="13" r="13" transform="translate(83 145)" fill="#5b5b5b"/>
    <circle id="Ellipse_21" data-name="Ellipse 21" cx="13" cy="13" r="13" transform="translate(83 87)" fill="#9f9f9f"/>
    <circle id="Ellipse_22" data-name="Ellipse 22" cx="13" cy="13" r="13" transform="translate(46 86)" fill="#9f9f9f"/>
    <circle id="Ellipse_23" data-name="Ellipse 23" cx="13" cy="13" r="13" transform="translate(9 86)" fill="#9f9f9f"/>
    <circle id="Ellipse_24" data-name="Ellipse 24" cx="13" cy="13" r="13" transform="translate(298 27)" fill="#5b5b5b"/>
    <circle id="Ellipse_25" data-name="Ellipse 25" cx="13" cy="13" r="13" transform="translate(268 56)" fill="#5b5b5b"/>
    <circle id="Ellipse_26" data-name="Ellipse 26" cx="13" cy="13" r="13" transform="translate(244 86)" fill="#5b5b5b"/>
    <circle id="Ellipse_27" data-name="Ellipse 27" cx="13" cy="13" r="13" transform="translate(269 112)" fill="#5b5b5b"/>
    <circle id="Ellipse_28" data-name="Ellipse 28" cx="13" cy="13" r="13" transform="translate(299 142)" fill="#5b5b5b"/>
    <circle id="Ellipse_29" data-name="Ellipse 29" cx="13" cy="13" r="13" transform="translate(299 87)" fill="#9f9f9f"/>
    <circle id="Ellipse_30" data-name="Ellipse 30" cx="13" cy="13" r="13" transform="translate(336 87)" fill="#9f9f9f"/>
    <circle id="Ellipse_31" data-name="Ellipse 31" cx="13" cy="13" r="13" transform="translate(373 87)" fill="#9f9f9f"/>
  </g>
</svg>
